<svg width="468" height="298" viewBox="0 0 468 298" fill="none" xmlns="http://www.w3.org/2000/svg">
<path d="M65.1144 260.376C112.45 298.788 387.557 311.92 437.777 246.547C487.997 181.175 423.294 98.8399 357.605 98.8399C345.104 45.0936 259.498 -24.6623 157.576 27.3687C59.6794 22.604 22.385 78.0657 8.82367 129.525C-9.26566 198.166 40.7333 240.591 65.1144 260.376Z" fill="url(#paint0_linear)"/>
<g filter="url(#filter0_f)">
<path d="M60.9197 252.277C104.925 289.15 360.675 301.755 407.362 239.003C454.049 176.25 393.897 97.2141 332.831 97.2141C321.209 45.6215 241.626 -21.3392 146.875 28.6069C55.8671 24.0331 21.1968 77.2724 8.58957 126.67C-8.22702 192.56 38.2541 233.285 60.9197 252.277Z" fill="url(#paint1_linear)"/>
</g>
<path d="M69.515 265.736C120.477 302.417 391.65 317.01 441.822 251.98C491.995 186.95 427.353 107.4 361.727 107.4C349.238 53.9353 263.713 -15.455 161.888 36.3033C64.0854 31.5636 26.8266 86.7345 13.2781 137.924C-4.79398 206.205 43.7469 246.237 69.515 265.736Z" stroke="#4183D7" stroke-width="0.5"/>
<path d="M76.8124 258.712C127.774 295.393 398.948 309.986 449.12 244.956C499.292 179.926 434.65 100.376 369.024 100.376C356.535 46.9115 271.011 -22.4787 169.186 29.2796C71.3828 24.5398 34.1239 79.7108 20.5755 130.9C2.50339 199.181 51.0443 239.213 76.8124 258.712Z" stroke="#4183D7" stroke-width="0.5"/>
<path d="M62.2893 251.351C114.195 288.428 390.39 303.178 441.491 237.447C492.593 171.715 426.754 91.3064 359.913 91.3064C347.192 37.2648 260.084 -32.8743 156.373 19.4426C56.7591 14.6517 18.8103 70.418 5.01096 122.16C-13.3958 191.178 36.044 231.641 62.2893 251.351Z" stroke="#9A76AC" stroke-width="0.5"/>
<path d="M62.2893 261.385C114.195 298.462 390.39 313.212 441.491 247.48C492.593 181.749 426.754 101.34 359.913 101.34C347.192 47.2987 260.084 -22.8404 156.373 29.4765C56.7591 24.6856 18.8103 80.4519 5.01096 132.194C-13.3958 201.212 36.044 241.675 62.2893 261.385Z" stroke="#9A76AC" stroke-width="0.5"/>
<ellipse rx="2.92848" ry="2.8186" transform="matrix(-1 0 0 1 401.521 217.541)" fill="#E1777C"/>
<ellipse rx="2.92848" ry="3.07483" transform="matrix(-1 0 0 1 158.928 136.075)" fill="#D66267"/>
<circle r="3" transform="matrix(-1 0 0 1 200 33)" fill="#E1777C"/>
<ellipse rx="1.33113" ry="1.28118" transform="matrix(-1 0 0 1 220.597 142.014)" fill="#E1777C"/>
<ellipse rx="1.0649" ry="1.02494" transform="matrix(-1 0 0 1 99.8413 172.391)" fill="#E1777C"/>
<ellipse rx="2.39603" ry="2.30612" transform="matrix(-1 0 0 1 392.671 239.103)" fill="#80A4D1"/>
<ellipse rx="1.33113" ry="1.28118" transform="matrix(-1 0 0 1 400.033 84.6167)" fill="#80A4D1"/>
<ellipse rx="1.33113" ry="1.28118" transform="matrix(-1 0 0 1 425.011 202.959)" fill="#80A4D1"/>
<ellipse rx="2.39603" ry="2.30612" transform="matrix(-1 0 0 1 351.048 105.628)" fill="#80A4D1"/>
<ellipse rx="2.39603" ry="2.30612" transform="matrix(-1 0 0 1 25.396 145.306)" fill="#80A4D1"/>
<ellipse rx="2.39603" ry="2.30612" transform="matrix(-1 0 0 1 183.396 47.3061)" fill="#80A4D1"/>
<ellipse rx="2.39603" ry="2.30612" transform="matrix(-1 0 0 1 97.4453 159.835)" fill="#80A4D1"/>
<ellipse rx="1.86358" ry="1.79365" transform="matrix(-1 0 0 1 369.226 200.461)" fill="#4183D7"/>
<ellipse rx="2.92848" ry="2.8186" transform="matrix(-1 0 0 1 87.3291 170.597)" fill="#4183D7"/>
<ellipse rx="1.86358" ry="1.79365" transform="matrix(-1 0 0 1 404.293 99.9909)" fill="#C4C4C4"/>
<ellipse rx="1.86358" ry="1.79365" transform="matrix(-1 0 0 1 399.458 189.424)" fill="#C4C4C4"/>
<ellipse rx="2.60626" ry="2.50847" transform="matrix(-1 0 0 1 407.056 234.288)" fill="#4183D7" fill-opacity="0.5"/>
<ellipse rx="2.60626" ry="2.50847" transform="matrix(-1 0 0 1 359.101 217.23)" fill="#80A4D1"/>
<g filter="url(#filter1_d)">
<ellipse cx="229.054" cy="232.286" rx="125.054" ry="38.3342" fill="url(#paint2_linear)"/>
</g>
<g filter="url(#filter2_d)">
<rect x="287.674" y="221.474" width="6.7044" height="8.09966" transform="rotate(-6.1047 287.674 221.474)" fill="#B6C9E1"/>
<path d="M292.057 229.044L291.666 225L294.778 223.573L295.117 228.6L292.057 229.044Z" fill="#A2B6CE"/>
<ellipse cx="259.468" cy="173.445" rx="8.30953" ry="50.1876" transform="rotate(7.84414 259.468 173.445)" fill="#C4C4C4"/>
<ellipse rx="8.30953" ry="50.1876" transform="matrix(-0.990643 0.136479 0.136479 0.990643 283.817 175.764)" fill="#C4C4C4"/>
<rect x="267.189" y="72.7353" width="6.57033" height="8.88926" fill="#E6C1A7"/>
<rect x="250.244" y="220.901" width="6.7044" height="8.09966" transform="rotate(2.47351 250.244 220.901)" fill="#B6C9E1"/>
<path d="M209.889 227.953H231.399L219.043 175.322L208.516 222.003L209.889 227.953Z" fill="#205CA9"/>
<circle cx="214.008" cy="206.901" r="10.9838" fill="url(#paint3_linear)"/>
<path d="M217.719 117.955L241.101 222.887L231.399 227.953L219.042 175.322L204.855 242.14L187.959 252.26H161.835L197.428 118.148L217.719 117.955Z" fill="#4183D7"/>
<path d="M161.835 252.26H187.959L217.719 117.955H197.532L161.835 252.26Z" fill="#85B9FC"/>
<path d="M253.469 229.07L253.662 225.012L256.947 224.046L256.561 229.07H253.469Z" fill="#A2B6CE"/>
<ellipse cx="210.063" cy="118.018" rx="6.18384" ry="2.51218" transform="rotate(-27.5585 210.063 118.018)" fill="#F0CFB7"/>
<path d="M214.627 114.476C214.82 114.476 215.207 116.602 214.82 117.568C213.467 119.307 207.863 122.593 205.351 121.433C207.09 121.24 214.82 117.375 212.694 114.476C213.854 114.283 214.434 114.476 214.627 114.476Z" fill="#E6C1A7"/>
<path d="M215.013 118.148C214.859 117.993 214.691 115.249 214.627 113.897C220.424 110.805 238.783 110.998 239.942 108.872C241.159 106.641 241.488 107.326 246.899 96.3112C251.228 87.4993 257.334 82.5264 259.46 82.2043L259.653 87.0355C259.846 88.5814 260.233 91.6733 258.687 97.0842C256.754 103.848 250.957 112.737 245.353 116.795C240.908 121.24 215.207 118.341 215.013 118.148Z" fill="#F06363"/>
<path d="M273.76 77.9529C272.214 78.9191 268.542 78.9191 267.189 78.3394C266.61 78.5326 267.189 80.0786 266.996 81.0448C266.417 81.238 262.473 81.6245 262.473 81.6245C262.409 82.011 262.281 82.5135 261.972 82.9772C261.585 83.557 263.517 87.0354 263.324 87.6151C263.131 88.1949 267.962 89.9341 268.735 89.9341C269.508 89.9341 274.146 88.5813 275.499 88.1949C276.581 87.8857 277.496 84.2656 276.851 81.2381C276.851 81.2381 274.339 80.8516 274.146 80.6583C273.953 80.0786 274.34 77.9529 273.76 77.9529Z" fill="#F06363"/>
<path d="M273.76 77.5665C272.832 78.6487 267.962 77.5665 267.189 76.407C267.189 75.4794 271.57 73.8948 273.76 73.1219V77.5665Z" fill="#DBB498"/>
<ellipse cx="268.986" cy="62.604" rx="8.30953" ry="13.9136" transform="rotate(5.15567 268.986 62.604)" fill="#F0CFB7"/>
<path d="M269.122 76.4069C273.605 73.6242 271.698 63.0086 270.281 58.0486C272.729 58.2419 277.547 59.6333 277.238 63.6527C276.852 68.6771 273.953 75.8272 269.122 76.4069Z" fill="#ECC1A2"/>
<path d="M267.189 57.6622C263.942 58.126 259.46 59.4014 261.392 56.1162C266.416 56.1162 276.078 56.5027 278.011 59.0149C278.938 61.1792 277.753 63.6528 277.044 64.619C276.619 65.1987 273.914 65.7012 273.759 63.846C273.373 60.5608 269.315 57.2757 267.189 57.6622Z" fill="#403131"/>
<path d="M269.122 48.1932C263.904 48.1932 262.229 53.9261 261.199 56.1162C268.929 56.1162 275.499 57.6622 278.011 59.0149C278.011 51.2851 275.692 48.3864 269.122 48.1932Z" fill="#4183D7"/>
<path d="M296.176 231.583C290.147 236.066 278.398 235.254 273.953 234.095C272.214 230.037 287.094 228.297 288.446 228.297C290.572 228.684 293.277 228.297 295.017 227.718C295.983 229.264 296.37 230.616 296.176 231.583Z" fill="#393939"/>
<path d="M257.144 232.165C250.514 235.699 239.017 233.144 234.795 231.334C233.68 227.062 248.653 227.562 249.991 227.764C252.035 228.463 254.768 228.484 256.574 228.171C257.299 229.843 257.479 231.239 257.144 232.165Z" fill="#393939"/>
<path d="M265.257 49.5459C264.948 51.2028 269.895 55.1946 272.214 56.8892C272.021 56.8892 262.359 53.4838 262.359 53.2176C262.359 53.0293 264.098 50.1108 265.257 49.5459Z" fill="#3677C9"/>
<path d="M261.005 52.8311C261.005 52.8311 268.735 53.7973 272.6 57.2757C268.156 56.3095 261.972 56.3095 261.972 56.3095C257.334 55.923 252.889 54.3771 252.889 53.1413C252.889 51.9055 258.944 52.3158 261.005 52.8311Z" fill="#28292B"/>
<path d="M274.146 80.6584C272.6 82.359 268.735 81.6246 266.996 81.0449L264.097 81.4314C263.711 83.8147 264.291 88.7747 270.668 88.5815C277.624 88.5815 276.851 82.0111 276.851 81.2381C275.692 81.0449 275.692 81.0449 274.146 80.6584L274.146 80.6584Z" fill="#DF5252"/>
<path d="M214.82 116.795C228.54 118.341 242.841 115.442 244.386 114.476C245.746 113.872 251 104.376 255.26 96.5045C257.334 91.8666 257.527 87.422 256.368 83.9435C257.527 82.9773 258.88 82.2043 259.266 82.2043C259.46 82.2043 258.556 89.7409 258.493 90.5139L257.72 99.9829C255.595 104.685 250.609 114.206 245.353 116.988C240.328 120.08 222.743 119.179 215.013 118.341C214.82 116.795 215.013 118.341 214.82 116.795Z" fill="#E45757"/>
<path d="M248.445 181.339C248.638 176.894 255.466 134.703 256.561 113.51L258.687 88.3882C266.03 88.7103 281.335 88.7747 282.263 88.0017C282.842 90.3206 285.409 112.166 285.548 113.317C286.9 124.525 288.833 141.724 289.219 143.656C289.529 145.202 294.63 197.314 296.949 222.887C294.373 225.012 289.606 226.558 284.195 224.626C279.141 213.02 271.043 161.525 271.03 152.687C270.511 161.884 261.907 217.862 259.846 224.046C253.276 226.365 252.116 225.592 246.512 222.887C247.285 209.939 248.058 187.136 248.445 181.339Z" fill="#3E79C3"/>
<path d="M264.098 81.4313C263.711 81.4313 260.168 81.9466 259.267 82.2043C258.88 84.1367 258.687 87.2287 258.687 88.5814C260.812 89.7408 278.978 90.3206 282.263 88.1949C282.263 87.2287 281.297 82.5908 280.717 81.8178C280.33 81.6246 277.883 81.3025 276.852 81.2381C276.852 84.1367 276.852 88.0766 270.668 88.5814C262.552 88.5814 264.484 81.6246 264.098 81.4313Z" fill="#3E79C4"/>
<path d="M269.509 151.966C268.156 152.932 260.04 200.47 256.368 225.012C257.141 225.012 258.687 224.626 259.846 224.046C260.619 222.887 268.542 176.315 271.055 152.739C271.178 151.579 270.282 150.806 269.509 151.966Z" fill="#366CB0"/>
<path d="M280.717 81.8178C280.562 81.6632 279.364 81.4957 278.784 81.4313C282.842 104.427 287.094 145.975 287.094 150.999C287.673 156.797 294.051 215.35 293.664 224.626C295.055 224.317 296.434 223.337 296.949 222.887L294.051 190.615C292.311 173.996 288.833 140.526 288.833 139.598C288.833 138.439 284.388 105.973 284.388 104.427C284.388 102.881 280.91 82.011 280.717 81.8178Z" fill="#366CB0"/>
<ellipse cx="283.615" cy="131.482" rx="5.99059" ry="2.31894" fill="#F0CFB7"/>
<path d="M287.673 129.743C287.209 133.762 280.781 132.706 277.625 131.675C278.977 135.153 287.673 133.801 288.833 132.641C289.412 132.448 289.799 130.129 287.673 129.743Z" fill="#E6C1A7"/>
<path d="M313.375 109.065C302.553 93.799 289.606 83.3638 280.716 81.8178C281.683 82.9773 283.228 95.1517 283.422 95.9247C284.968 97.8572 296.176 107.519 299.075 109.065C302.939 111.384 304.485 110.418 301.587 113.124C300.621 113.896 288.06 128.197 287.48 129.163C287.48 130.322 288.317 132.062 289.219 133.028C300.814 130.516 314.78 113.51 313.375 109.065Z" fill="#F06363"/>
<path d="M278.278 97.355C278.278 99.2977 274.7 100.891 270.294 100.891C265.888 100.891 262.289 99.3171 262.289 97.355C262.289 95.9757 264.089 94.7907 266.695 94.2079C266.695 94.105 266.902 93.7416 266.902 93.7416C266.902 93.7416 267.315 93.9359 267.46 94.0525C268.35 93.8971 269.301 93.8193 270.294 93.8193C274.7 93.8193 278.278 95.3929 278.278 97.355Z" fill="white"/>
<path d="M272.424 96.4615C271.99 96.4615 271.618 96.1313 271.618 95.7233C271.618 95.3153 271.969 94.9851 272.424 94.9851C272.859 94.9851 273.231 95.3153 273.231 95.7233C273.231 96.1313 272.879 96.4615 272.424 96.4615Z" fill="#E40B14"/>
<path d="M270.253 93.7235C274.7 93.7235 278.34 95.3359 278.34 97.3368C278.34 99.3378 274.721 100.95 270.253 100.95C265.806 100.95 262.165 99.3378 262.165 97.3368C262.165 95.9187 264.006 94.6948 266.695 94.112C266.654 94.1703 266.633 94.2286 266.633 94.2869C264.089 94.8502 262.351 96.0158 262.351 97.3368C262.351 99.2212 265.909 100.775 270.253 100.775C274.617 100.775 278.154 99.2407 278.154 97.3368C278.154 95.4525 274.597 93.8983 270.253 93.8983C269.322 93.8983 268.433 93.976 267.605 94.0926C267.543 94.0149 267.46 93.976 267.378 93.9566C268.267 93.8206 269.239 93.7235 270.253 93.7235Z" fill="#3E79C3"/>
<path d="M262.785 97.2968C263.447 97.4328 264.047 97.5494 264.647 97.6271L264.42 98.3847H264.978L264.792 98.579H266.343L266.157 98.8704H269.053L268.908 98.7344L269.696 98.6907H270.224L269.86 97.6853C272.424 96.9277 275.465 96.9471 277.761 97.6077C277.782 97.5105 277.802 97.4134 277.802 97.3163C277.802 95.6455 274.431 94.3051 270.315 94.3051C269.467 94.3051 268.66 94.3634 267.895 94.4605C267.895 94.4022 267.874 94.3634 267.832 94.3245C268.618 94.208 269.446 94.1497 270.315 94.1497C274.534 94.1497 277.968 95.5678 277.968 97.3163C277.968 99.0646 274.534 100.483 270.315 100.483C266.095 100.483 262.661 99.0646 262.661 97.3163C262.661 96.1506 264.213 95.121 266.488 94.5771C266.467 94.6159 266.447 94.6742 266.447 94.7325C264.275 95.2764 262.827 96.2283 262.785 97.2968Z" fill="#3E79C3"/>
<path d="M264.978 98.3846H264.399L265.309 95.5872L266.136 95.3541L266.902 93.6251L267.75 94.1108L268.929 96.9471L269.673 97.1413L270.273 98.7149H269.922C269.901 98.6955 269.901 98.6955 269.88 98.676H270.191L269.57 97.1996L268.867 96.9665L267.729 94.2467L266.922 93.7417L266.198 95.4318L265.412 95.6649L264.461 98.3846H264.978Z" fill="white"/>
<path d="M266.116 95.3542L265.288 95.5873L264.357 98.4236L264.957 98.4042C264.957 98.4042 264.957 98.4042 264.957 98.3847C264.957 98.3653 264.957 98.3653 264.957 98.3653C264.957 98.3653 264.502 98.3459 264.461 98.3459C264.482 98.307 265.392 95.665 265.392 95.665L266.178 95.4513C266.178 95.4513 266.881 93.8195 266.902 93.7806C266.943 93.8 267.688 94.2663 267.688 94.2663L268.805 97.0054L269.508 97.2386C269.508 97.2386 270.087 98.6373 270.108 98.6761C270.066 98.6761 269.777 98.6761 269.777 98.6761L269.839 98.7344H270.211H270.232L269.632 97.1414L268.887 96.9277L267.77 94.1109L266.902 93.6058L266.116 95.3542Z" fill="#3E79C3"/>
<path d="M264.751 98.6372L264.813 98.6178C264.875 98.5401 265.992 97.1414 266.033 97.0831C266.033 97.1414 266.095 97.5105 266.095 97.5105H266.447C266.447 97.5105 266.654 97.8601 266.674 97.8796L266.716 97.8601L266.488 97.491C266.488 97.491 266.178 97.491 266.137 97.491C266.137 97.4716 266.075 97.0248 266.075 97.0248L264.751 98.6372Z" fill="#3E79C3"/>
<path d="M266.571 96.8499L266.612 96.8305C266.633 96.7917 266.777 96.3643 266.839 96.2477C266.839 96.3837 266.839 96.7528 266.839 96.7528H266.881L266.86 96.1506H266.819L266.571 96.8499Z" fill="#3E79C3"/>
<path d="M265.992 95.8203C265.992 95.8203 266.033 95.8203 266.033 95.8009C266.054 95.7426 266.054 95.7426 266.323 95.1404H266.282L265.992 95.8203Z" fill="#3E79C3"/>
<path d="M266.095 98.9091H266.136C266.178 98.8509 266.322 98.7149 266.695 98.1515L266.653 98.1321L266.095 98.9091Z" fill="white"/>
<path d="M269.156 99.0063V98.9674C269.115 98.9286 268.991 98.7537 268.474 98.2875L268.453 98.3069L269.156 99.0063Z" fill="#3E79C3"/>
<path d="M269.819 98.7926V98.7538C269.777 98.7149 269.653 98.5401 269.136 98.0739L269.115 98.0933L269.819 98.7926Z" fill="white"/>
<path d="M267.377 94.5576L267.398 95.4124C267.398 95.4124 267.419 95.4124 267.439 95.4124C267.439 95.4124 267.439 95.0044 267.439 94.7713C267.481 95.0044 267.543 95.393 267.543 95.4124C267.563 95.4124 267.584 95.4124 267.584 95.4124L267.439 94.577L267.377 94.5576Z" fill="#3E79C3"/>
<path d="M267.667 96.7141L268.143 97.9574C268.143 97.9574 268.164 97.938 268.164 97.9185C268.143 97.8797 267.874 97.1609 267.771 96.8889C267.915 97.1415 268.267 97.7437 268.267 97.7437L268.288 97.7243L267.688 96.6752L267.667 96.7141Z" fill="#3E79C3"/>
<path d="M288.06 131.289C298.302 128.325 310.669 115.249 310.863 109.838C306.277 101.868 297.277 94.9071 289.799 90.1662C287.093 88.5044 281.876 89.7409 285.741 98.2437C284.388 97.0842 284.968 97.6639 283.422 95.9247L281.683 85.4895C281.489 84.7165 281.296 83.557 280.716 81.8178C292.697 83.7503 313.181 105.007 313.568 109.259C312.988 117.182 300.814 129.936 289.219 133.221C288.639 132.448 288.833 132.834 288.06 131.289Z" fill="#DF5252"/>
<path fill-rule="evenodd" clip-rule="evenodd" d="M261.894 103.271L262.362 103.257C262.376 103.195 262.453 103.07 262.646 103.07C262.888 103.07 263.015 103.151 263.015 103.297V103.631C262.779 103.453 262.192 103.204 261.851 103.631C261.61 104.006 262.021 104.233 262.362 104.246C262.518 104.246 262.856 104.19 263.015 103.965L263.172 104.233H263.754C263.612 104.139 263.513 104.046 263.513 103.712C263.513 103.252 263.516 103.219 263.514 103.186C263.514 103.18 263.513 103.173 263.513 103.164C263.489 103.039 263.3 102.787 262.731 102.776C262.021 102.763 261.908 102.977 261.894 103.271ZM262.646 103.618C262.408 103.607 262.32 103.721 262.305 103.778C262.291 103.836 262.362 103.965 262.646 103.965C263.018 103.953 263.016 103.814 263.016 103.781C263.016 103.78 263.015 103.779 263.015 103.778C263.015 103.752 262.944 103.631 262.646 103.618Z" fill="#E40B14"/>
<path fill-rule="evenodd" clip-rule="evenodd" d="M265.005 103.271L265.474 103.257C265.488 103.195 265.565 103.07 265.758 103.07C265.999 103.07 266.127 103.151 266.127 103.297V103.631C265.89 103.453 265.303 103.204 264.963 103.631C264.721 104.006 265.133 104.233 265.474 104.246C265.63 104.246 265.968 104.19 266.127 103.965L266.283 104.233H266.866C266.724 104.139 266.624 104.046 266.624 103.712C266.624 103.252 266.627 103.219 266.626 103.186C266.625 103.18 266.625 103.173 266.624 103.164C266.6 103.039 266.411 102.787 265.843 102.776C265.133 102.763 265.019 102.977 265.005 103.271ZM265.758 103.618C265.519 103.607 265.431 103.721 265.417 103.778C265.403 103.836 265.474 103.965 265.758 103.965C266.13 103.953 266.128 103.814 266.127 103.781C266.127 103.78 266.127 103.779 266.127 103.778C266.127 103.752 266.056 103.631 265.758 103.618Z" fill="white"/>
<path d="M267.006 103.11C267.006 102.989 266.841 102.843 266.765 102.776H267.347C267.484 102.851 267.518 103.072 267.518 103.172V103.765C267.518 103.845 267.631 103.965 267.958 103.939C268.219 103.917 268.256 103.725 268.256 103.591V102.817H268.753V103.538C268.753 103.992 268.753 103.952 268.98 104.193H268.391C268.313 104.112 268.27 104.046 268.242 103.925C267.958 104.233 267.645 104.208 267.319 104.152C267.035 104.104 267.002 103.845 267.006 103.725V103.11Z" fill="white"/>
<path d="M270.755 103.311L270.315 103.284C270.315 103.111 270.216 103.044 269.946 103.03C269.73 103.02 269.657 103.151 269.648 103.217V103.685C269.648 103.725 269.619 103.939 269.989 103.952C270.287 103.952 270.301 103.805 270.315 103.698H270.755C270.77 103.845 270.77 104.113 270.315 104.206C269.44 104.281 269.165 104.041 269.136 103.912V103.111C269.179 102.83 269.705 102.75 270.258 102.79C270.702 102.822 270.774 103.151 270.755 103.311Z" fill="white"/>
<path fill-rule="evenodd" clip-rule="evenodd" d="M270.843 104.174C270.932 104.087 271.023 103.998 271.011 103.725V102.817C271.011 102.701 271.127 102.469 271.593 102.469H272.488C272.564 102.465 272.789 102.402 272.8 102.242C272.799 102.256 272.798 102.271 272.797 102.286C272.787 102.455 272.773 102.664 272.63 102.67C272.357 102.68 271.901 102.701 271.707 102.71C271.631 102.705 271.488 102.771 271.522 103.07C271.531 103.061 271.54 103.051 271.549 103.042C271.726 102.851 271.781 102.791 272.147 102.803C272.403 102.817 272.641 102.894 272.687 102.99C272.734 103.089 272.735 103.161 272.74 103.394C272.741 103.443 272.742 103.499 272.744 103.565C272.755 104.006 272.687 104.193 272.204 104.219C271.738 104.219 271.596 104.051 271.54 103.985C271.533 103.977 271.527 103.97 271.522 103.966C271.522 103.958 271.516 103.972 271.506 103.997C271.481 104.06 271.427 104.191 271.366 104.219H270.798C270.813 104.204 270.828 104.189 270.843 104.174ZM272.246 103.752V103.204C272.246 103.111 272.062 103.044 271.82 103.044C271.627 103.044 271.541 103.168 271.522 103.231V103.752C271.522 103.832 271.593 103.939 271.906 103.939C272.156 103.939 272.237 103.814 272.246 103.752Z" fill="white"/>
<path fill-rule="evenodd" clip-rule="evenodd" d="M273.596 103.511H274.689C274.689 103.487 274.69 103.461 274.691 103.434C274.697 103.197 274.706 102.887 274.235 102.803C273.61 102.723 273.084 102.87 273.07 103.111V103.952C273.141 104.113 273.439 104.26 273.922 104.26C274.533 104.26 274.661 104.072 274.689 103.725H274.235C274.235 103.819 274.235 103.952 273.894 103.952C273.579 103.952 273.584 103.836 273.593 103.629C273.594 103.592 273.596 103.553 273.596 103.511ZM274.235 103.351H273.596C273.596 103.177 273.61 103.044 273.922 103.044C274.22 103.044 274.235 103.204 274.235 103.351Z" fill="white"/>
<path fill-rule="evenodd" clip-rule="evenodd" d="M275.002 102.736H275.499V102.99C275.575 102.888 275.843 102.699 276.309 102.763C276.706 102.818 276.706 103.044 276.706 103.191V103.778C276.711 103.912 276.607 104.166 276.096 104.166C275.679 104.154 275.597 104.029 275.542 103.947C275.537 103.939 275.532 103.932 275.528 103.925V104.353C275.528 104.429 275.496 104.599 275.371 104.674H274.789C274.959 104.487 275.002 104.42 275.002 104.166V102.736ZM275.584 103.752V103.231C275.584 103.204 275.613 103.03 275.954 103.03C276.204 103.03 276.275 103.164 276.28 103.231V103.752C276.28 103.805 276.195 103.912 275.954 103.912C275.712 103.912 275.599 103.805 275.584 103.752Z" fill="white"/>
<path d="M277.558 103.271H277.09C277.034 103.068 277.223 102.892 277.317 102.83C277.53 102.71 278.069 102.622 278.467 102.803C278.906 103.004 278.709 103.404 278.623 103.458C278.524 103.538 278.311 103.632 277.97 103.632C277.743 103.632 277.629 103.618 277.615 103.752C277.615 103.872 277.635 103.982 277.942 103.992C278.268 103.979 278.268 103.832 278.282 103.685H278.751C278.736 104.286 278.126 104.233 277.658 104.206C277.288 104.179 277.09 104.059 277.09 103.752C277.09 103.444 277.388 103.324 277.743 103.324C278.055 103.324 278.211 103.324 278.211 103.191C278.211 103.07 278.169 103.004 277.856 103.004C277.615 103.017 277.558 103.182 277.558 103.271Z" fill="white"/>
<path d="M264.293 103.899C264.489 103.899 264.648 103.749 264.648 103.565C264.648 103.38 264.489 103.231 264.293 103.231C264.097 103.231 263.938 103.38 263.938 103.565C263.938 103.749 264.097 103.899 264.293 103.899Z" fill="white"/>
<path d="M267.843 102.776C268.039 102.776 268.198 102.627 268.198 102.442C268.198 102.258 268.039 102.108 267.843 102.108C267.647 102.108 267.488 102.258 267.488 102.442C267.488 102.627 267.647 102.776 267.843 102.776Z" fill="#E40B14"/>
<path fill-rule="evenodd" clip-rule="evenodd" d="M266.763 108.105V107.331C266.736 107.331 266.71 107.331 266.678 107.331C266.479 107.331 266.216 107.305 266.138 107.451C266.076 107.568 266.082 107.785 266.309 107.811L266.067 108.105H266.337L266.508 107.838V108.105H266.763ZM266.508 107.504V107.685C266.389 107.685 266.351 107.678 266.351 107.598C266.351 107.504 266.422 107.504 266.508 107.504Z" fill="white"/>
<path d="M261.835 108.119H262.346V107.932H262.077V107.798H262.318V107.638H262.077V107.517H262.346V107.33H261.835V108.119Z" fill="white"/>
<path d="M273.963 108.119H274.475V107.932H274.205V107.798H274.446V107.638H274.205V107.517H274.475V107.33H273.963V108.119Z" fill="white"/>
<path fill-rule="evenodd" clip-rule="evenodd" d="M262.404 108.292H262.617V108.145H263.085V108.292H263.312V107.932H263.199V107.33H262.588V107.745C262.588 107.807 262.588 107.932 262.404 107.932V108.292ZM262.957 107.918H262.702C262.759 107.876 262.787 107.811 262.787 107.731V107.517H262.957V107.918Z" fill="white"/>
<path d="M263.611 107.33H263.383V108.132H263.611L263.937 107.678V108.119H264.179V107.33H263.937L263.611 107.785V107.33Z" fill="white"/>
<path d="M276.463 107.33H276.236V108.132H276.463L276.79 107.678V108.119H277.031V107.33H276.79L276.463 107.785V107.33Z" fill="white"/>
<path d="M264.321 108.119V107.33H264.576V107.611H264.846V107.33H265.087V108.119H264.846V107.798H264.576V108.119H264.321Z" fill="white"/>
<path fill-rule="evenodd" clip-rule="evenodd" d="M265.158 108.119L265.471 107.33H265.755L266.067 108.119H265.798L265.741 107.985H265.471L265.414 108.119H265.158ZM265.698 107.811H265.513L265.599 107.531L265.698 107.811Z" fill="white"/>
<path fill-rule="evenodd" clip-rule="evenodd" d="M271.805 108.119L272.117 107.33H272.401L272.714 108.119H272.444L272.387 107.985H272.117L272.061 108.119H271.805ZM272.345 107.811H272.16L272.245 107.531L272.345 107.811Z" fill="white"/>
<path fill-rule="evenodd" clip-rule="evenodd" d="M277.855 108.119L278.167 107.33H278.451L278.764 108.119H278.494L278.437 107.985H278.167L278.111 108.119H277.855ZM278.395 107.811H278.21L278.295 107.531L278.395 107.811Z" fill="white"/>
<path d="M267.999 107.371V107.598C267.885 107.531 267.86 107.518 267.757 107.518C267.686 107.518 267.587 107.564 267.587 107.718C267.587 107.838 267.615 107.918 267.743 107.932C267.885 107.932 267.947 107.883 267.985 107.852V108.092C267.814 108.186 267.615 108.186 267.445 108.052C267.291 107.932 267.26 107.558 267.459 107.397C267.652 107.269 267.899 107.326 267.999 107.371Z" fill="white"/>
<path d="M277.824 107.371V107.598C277.71 107.531 277.685 107.518 277.582 107.518C277.511 107.518 277.412 107.564 277.412 107.718C277.412 107.838 277.44 107.918 277.568 107.932C277.71 107.932 277.772 107.883 277.809 107.852V108.092C277.639 108.186 277.44 108.186 277.27 108.052C277.116 107.932 277.085 107.558 277.284 107.397C277.477 107.269 277.724 107.326 277.824 107.371Z" fill="white"/>
<path d="M273.875 107.371V107.598C273.762 107.531 273.737 107.518 273.634 107.518C273.563 107.518 273.464 107.564 273.464 107.718C273.464 107.838 273.492 107.918 273.62 107.932C273.762 107.932 273.823 107.883 273.861 107.852V108.092C273.691 108.186 273.492 108.186 273.322 108.052C273.168 107.932 273.137 107.558 273.336 107.397C273.529 107.269 273.776 107.326 273.875 107.371Z" fill="white"/>
<path d="M268.013 108.132V107.958C268.138 107.958 268.198 107.932 268.198 107.758V107.33H268.837V108.119H268.595V107.517H268.439V107.878C268.439 108.079 268.297 108.132 268.226 108.132H268.013Z" fill="white"/>
<path d="M269.235 107.905L268.908 107.33H269.206L269.377 107.638L269.496 107.33H269.76L269.391 108.119H269.121L269.235 107.905Z" fill="white"/>
<path d="M270.058 107.718L269.774 107.33H270.044L270.271 107.651V107.33H270.513V107.651L270.726 107.33H271.01L270.726 107.718L271.038 108.119H270.726L270.513 107.785V108.119H270.271V107.785L270.058 108.119H269.774L270.058 107.718Z" fill="white"/>
<path fill-rule="evenodd" clip-rule="evenodd" d="M271.095 107.33V108.105H271.549L271.55 108.105C271.631 108.101 271.805 108.091 271.805 107.865C271.805 107.825 271.805 107.652 271.549 107.638H271.351V107.517H271.734V107.33H271.095ZM271.389 107.959C271.376 107.959 271.364 107.958 271.351 107.958V107.798C271.521 107.798 271.549 107.798 271.549 107.878C271.549 107.961 271.483 107.96 271.389 107.959Z" fill="white"/>
<path fill-rule="evenodd" clip-rule="evenodd" d="M274.603 108.132H274.858V107.865C275.057 107.865 275.284 107.851 275.284 107.624C275.284 107.357 275.114 107.33 274.83 107.33H274.603V108.132ZM274.83 107.691V107.504C274.958 107.504 275.014 107.504 275.014 107.598C275.014 107.691 274.929 107.691 274.83 107.691Z" fill="white"/>
<path fill-rule="evenodd" clip-rule="evenodd" d="M275.412 108.132V107.33H275.824C275.909 107.33 276.066 107.384 276.066 107.517C276.066 107.632 276.001 107.662 275.946 107.687C275.944 107.689 275.941 107.69 275.938 107.691C275.941 107.692 275.944 107.693 275.948 107.694C275.999 107.709 276.122 107.745 276.122 107.932C276.122 108.092 275.966 108.132 275.895 108.132H275.412ZM275.64 107.651V107.504C275.706 107.5 275.824 107.507 275.824 107.571C275.824 107.651 275.711 107.651 275.64 107.651ZM275.867 107.918C275.867 108.004 275.715 108.007 275.64 107.998V107.838C275.648 107.838 275.658 107.838 275.67 107.837C275.742 107.833 275.867 107.827 275.867 107.918Z" fill="white"/>
<path d="M278.764 104.861H261.779V106.753H278.764V104.861Z" fill="#E40B14"/>
<path d="M264.964 106.33H264.116C264.126 106.251 264.156 106.178 264.205 106.108C264.254 106.039 264.346 105.957 264.482 105.862C264.565 105.805 264.618 105.761 264.641 105.731C264.664 105.701 264.675 105.672 264.675 105.645C264.675 105.616 264.664 105.591 264.641 105.571C264.618 105.55 264.589 105.54 264.555 105.54C264.519 105.54 264.489 105.55 264.466 105.572C264.443 105.593 264.428 105.63 264.42 105.684L264.137 105.663C264.148 105.588 264.169 105.53 264.198 105.488C264.228 105.446 264.269 105.414 264.323 105.391C264.377 105.369 264.452 105.358 264.547 105.358C264.646 105.358 264.724 105.368 264.779 105.39C264.834 105.411 264.878 105.444 264.909 105.488C264.941 105.532 264.957 105.581 264.957 105.636C264.957 105.694 264.939 105.75 264.902 105.803C264.866 105.856 264.8 105.914 264.704 105.978C264.648 106.015 264.61 106.041 264.59 106.056C264.571 106.07 264.549 106.09 264.523 106.114H264.964V106.33ZM265.082 105.374H265.907V105.553C265.835 105.614 265.775 105.68 265.727 105.751C265.669 105.837 265.623 105.933 265.589 106.039C265.562 106.121 265.544 106.218 265.535 106.33H265.254C265.276 106.174 265.311 106.043 265.358 105.937C265.406 105.832 265.481 105.719 265.584 105.598H265.082V105.374ZM267.465 106.33H267.151V105.609H266.905V105.903C266.905 106.024 266.898 106.113 266.884 106.17C266.871 106.226 266.839 106.268 266.789 106.294C266.739 106.321 266.658 106.334 266.546 106.334C266.512 106.334 266.472 106.331 266.428 106.324V106.13H266.475C266.518 106.13 266.548 106.121 266.565 106.104C266.583 106.086 266.592 106.054 266.592 106.007V105.374H267.465V106.33ZM267.666 105.374H268.507V105.578H267.98V105.73H268.469V105.925H267.98V106.114H268.523V106.33H267.666V105.374ZM268.614 105.374H269.569V105.61H269.249V106.33H268.934V105.61H268.614V105.374ZM270.849 105.939L271.124 106.018C271.105 106.09 271.076 106.151 271.037 106.2C270.997 106.248 270.947 106.285 270.888 106.31C270.829 106.335 270.755 106.347 270.664 106.347C270.553 106.347 270.463 106.332 270.392 106.302C270.323 106.272 270.262 106.218 270.211 106.142C270.161 106.066 270.135 105.969 270.135 105.85C270.135 105.692 270.18 105.57 270.269 105.485C270.359 105.4 270.485 105.358 270.649 105.358C270.777 105.358 270.878 105.382 270.951 105.431C271.024 105.479 271.079 105.554 271.114 105.655L270.837 105.713C270.827 105.684 270.817 105.663 270.806 105.649C270.789 105.627 270.767 105.609 270.742 105.597C270.716 105.585 270.688 105.579 270.657 105.579C270.585 105.579 270.531 105.606 270.493 105.66C270.464 105.7 270.45 105.762 270.45 105.848C270.45 105.954 270.467 106.027 270.501 106.067C270.535 106.106 270.584 106.125 270.646 106.125C270.706 106.125 270.751 106.109 270.781 106.078C270.812 106.046 270.835 106 270.849 105.939ZM271.738 105.374H272.326C272.424 105.374 272.499 105.397 272.551 105.442C272.604 105.488 272.631 105.545 272.631 105.612C272.631 105.668 272.612 105.717 272.574 105.757C272.549 105.784 272.513 105.806 272.465 105.821C272.538 105.838 272.591 105.866 272.626 105.907C272.66 105.947 272.678 105.997 272.678 106.058C272.678 106.108 272.665 106.152 272.641 106.192C272.616 106.231 272.583 106.263 272.54 106.286C272.514 106.3 272.474 106.311 272.421 106.317C272.35 106.326 272.303 106.33 272.28 106.33H271.738V105.374ZM272.055 105.749H272.192C272.241 105.749 272.275 105.741 272.294 105.725C272.313 105.709 272.323 105.686 272.323 105.656C272.323 105.629 272.313 105.607 272.294 105.591C272.275 105.575 272.241 105.568 272.194 105.568H272.055V105.749ZM272.055 106.125H272.215C272.269 106.125 272.307 106.116 272.33 106.098C272.352 106.08 272.363 106.055 272.363 106.025C272.363 105.997 272.352 105.974 272.33 105.957C272.308 105.94 272.269 105.931 272.214 105.931H272.055V106.125ZM273.461 106.172H273.103L273.054 106.33H272.733L273.115 105.374H273.458L273.84 106.33H273.511L273.461 106.172ZM273.395 105.966L273.283 105.622L273.171 105.966H273.395ZM273.93 105.374H274.344L274.503 105.956L274.662 105.374H275.074V106.33H274.817V105.601L274.618 106.33H274.386L274.188 105.601V106.33H273.93V105.374ZM276.241 105.374V106.33H275.946V105.805L275.565 106.33H275.269V105.374H275.565V105.903L275.947 105.374H276.241Z" fill="white"/>
</g>
<defs>
<filter id="filter0_f" x="1" y="7" width="427" height="280" filterUnits="userSpaceOnUse" color-interpolation-filters="sRGB">
<feFlood flood-opacity="0" result="BackgroundImageFix"/>
<feBlend mode="normal" in="SourceGraphic" in2="BackgroundImageFix" result="shape"/>
<feGaussianBlur stdDeviation="2" result="effect1_foregroundBlur"/>
</filter>
<filter id="filter1_d" x="100" y="193.952" width="258.107" height="84.6684" filterUnits="userSpaceOnUse" color-interpolation-filters="sRGB">
<feFlood flood-opacity="0" result="BackgroundImageFix"/>
<feColorMatrix in="SourceAlpha" type="matrix" values="0 0 0 0 0 0 0 0 0 0 0 0 0 0 0 0 0 0 127 0"/>
<feOffset dy="4"/>
<feGaussianBlur stdDeviation="2"/>
<feColorMatrix type="matrix" values="0 0 0 0 0 0 0 0 0 0 0 0 0 0 0 0 0 0 0.25 0"/>
<feBlend mode="normal" in2="BackgroundImageFix" result="effect1_dropShadow"/>
<feBlend mode="normal" in="SourceGraphic" in2="effect1_dropShadow" result="shape"/>
</filter>
<filter id="filter2_d" x="159.835" y="47" width="155.733" height="208.26" filterUnits="userSpaceOnUse" color-interpolation-filters="sRGB">
<feFlood flood-opacity="0" result="BackgroundImageFix"/>
<feColorMatrix in="SourceAlpha" type="matrix" values="0 0 0 0 0 0 0 0 0 0 0 0 0 0 0 0 0 0 127 0"/>
<feOffset dy="1"/>
<feGaussianBlur stdDeviation="1"/>
<feColorMatrix type="matrix" values="0 0 0 0 0 0 0 0 0 0 0 0 0 0 0 0 0 0 0.25 0"/>
<feBlend mode="normal" in2="BackgroundImageFix" result="effect1_dropShadow"/>
<feBlend mode="normal" in="SourceGraphic" in2="effect1_dropShadow" result="shape"/>
</filter>
<linearGradient id="paint0_linear" x1="231.247" y1="9.02692" x2="231.055" y2="303.371" gradientUnits="userSpaceOnUse">
<stop offset="0.476485" stop-color="#C8DBF2"/>
<stop offset="0.734375" stop-color="#E0D8EA" stop-opacity="0.724137"/>
<stop offset="1" stop-color="#E2BCE9" stop-opacity="0.36"/>
</linearGradient>
<linearGradient id="paint1_linear" x1="-123.72" y1="-173.812" x2="249.046" y2="120.162" gradientUnits="userSpaceOnUse">
<stop offset="0.317708" stop-color="#E23333"/>
<stop offset="1" stop-color="white" stop-opacity="0"/>
</linearGradient>
<linearGradient id="paint2_linear" x1="229.054" y1="193.952" x2="229.054" y2="270.62" gradientUnits="userSpaceOnUse">
<stop stop-color="#C8DBF3"/>
<stop offset="1" stop-color="#E3D6E7"/>
</linearGradient>
<linearGradient id="paint3_linear" x1="225.708" y1="203.319" x2="214.008" y2="206.901" gradientUnits="userSpaceOnUse">
<stop stop-color="#E23333"/>
<stop offset="0.466783" stop-color="#EF6C6C"/>
<stop offset="1" stop-color="#E23333"/>
</linearGradient>
</defs>
</svg>
